<?xml version="1.0" standalone="no"?>
<!DOCTYPE svg PUBLIC "-//W3C//DTD SVG 20010904//EN"
 "http://www.w3.org/TR/2001/REC-SVG-20010904/DTD/svg10.dtd">
<svg version="1.0" xmlns="http://www.w3.org/2000/svg"
 width="260.000000pt" height="260.000000pt" viewBox="0 0 260.000000 260.000000"
 preserveAspectRatio="xMidYMid meet">
<metadata>
Created by potrace 1.11, written by Peter Selinger 2001-2013
</metadata>
<g transform="translate(0.000000,260.000000) scale(0.100000,-0.100000)"
fill="#000000" stroke="none">
<path d="M1260 2442 c-19 -1 -49 -4 -66 -7 l-31 -5 3 -95 c2 -85 1 -96 -17
-105 -10 -6 -19 -8 -19 -6 0 3 -19 -1 -41 -9 -23 -8 -44 -15 -48 -15 -3 0 -29
36 -56 80 -27 44 -53 80 -57 80 -24 0 -308 -186 -308 -201 0 -10 50 -91 62
-99 4 -3 12 -18 17 -34 12 -30 -1 -57 -51 -103 l-24 -22 -87 44 -87 44 -27
-42 c-15 -23 -55 -97 -90 -164 l-63 -122 81 -46 c45 -25 84 -45 88 -45 4 0 1
-31 -8 -70 l-16 -70 -45 -1 c-62 -2 -133 -6 -147 -8 -13 -1 -18 -201 -5 -201
4 0 7 -19 8 -42 1 -24 2 -63 2 -86 l2 -44 90 4 c49 3 94 2 100 -2 6 -4 19 -34
29 -67 l18 -60 -31 -19 c-17 -10 -54 -33 -83 -51 l-52 -33 40 -71 c48 -84 103
-172 137 -216 l24 -32 79 49 c43 28 81 50 83 50 2 0 23 -18 47 -40 24 -22 48
-40 52 -40 5 0 -12 -39 -37 -86 -25 -47 -46 -90 -46 -94 0 -12 302 -180 323
-180 3 0 24 37 47 83 l42 83 69 -9 c52 -7 69 -14 71 -26 1 -9 2 -41 4 -71 1
-30 4 -70 5 -88 l3 -33 151 6 c82 4 164 8 180 9 l30 1 5 100 5 100 40 13 c89
30 93 29 138 -58 11 -19 25 -45 33 -58 l14 -22 62 31 c34 17 73 39 87 48 14
10 59 39 99 64 39 26 72 51 72 55 0 8 -41 75 -81 134 l-19 27 32 38 c18 20 48
53 65 72 18 20 33 38 33 41 -1 3 -22 21 -48 40 -26 19 -50 39 -54 45 -4 6 -21
-7 -40 -30 -108 -134 -241 -219 -419 -266 -66 -18 -111 -23 -214 -23 -145 0
-243 20 -362 74 -254 115 -442 376 -468 651 -9 90 -9 80 -2 159 18 184 98 351
236 490 169 169 371 253 601 252 36 0 79 -3 95 -6 17 -3 46 -9 65 -12 89 -15
238 -89 326 -160 38 -31 45 -34 66 -23 51 27 110 72 101 78 -5 3 -21 22 -35
40 l-27 35 45 82 c24 45 44 84 44 87 0 7 -125 80 -227 131 l-92 46 -38 -58
c-21 -31 -43 -63 -50 -70 -7 -7 -13 -18 -13 -24 0 -10 -110 -5 -127 5 -5 3
-10 47 -11 98 -2 51 -6 97 -8 101 -5 8 -173 8 -274 0z"/>
<path d="M1410 1877 c-3 -3 -39 -7 -80 -10 -105 -7 -125 -12 -215 -56 -269
-132 -394 -436 -295 -718 79 -225 303 -387 535 -386 44 0 94 2 110 5 59 10
160 58 199 95 29 26 28 27 26 -39 -1 -27 2 -48 7 -49 14 -1 217 -1 233 0 23 1
27 641 5 716 -51 170 -161 304 -308 374 -79 38 -180 67 -197 56 -5 -3 -10 0
-12 6 -2 5 -6 8 -8 6z m103 -292 c134 -65 200 -206 173 -368 -14 -91 -92 -189
-180 -228 -77 -34 -200 -32 -278 5 -181 86 -238 338 -113 502 33 44 116 98
170 111 72 18 166 9 228 -22z"/>
</g>
</svg>
